{
	"accessors" : 
	[
		{
			"bufferView" : 2,
			"byteOffset" : 0,
			"componentType" : 5126,
			"count" : 1134,
			"max" : 
			[
				1,
				0.6120656132698059,
				0.2508402466773987,
				1
			],
			"min" : 
			[
				0.006584956776350737,
				0.006584956776350737,
				0,
				1
			],
			"name" : "accessor_color_m0-PolyPaper13_-199140",
			"type" : "VEC4"
		},
		{
			"bufferView" : 2,
			"byteOffset" : 18144,
			"componentType" : 5126,
			"count" : 9978,
			"max" : 
			[
				1,
				0.6120656132698059,
				0.2508402466773987,
				1
			],
			"min" : 
			[
				0.006584956776350737,
				0.006584956776350737,
				0,
				1
			],
			"name" : "accessor_color_m1-PolyPaper23_-198922",
			"type" : "VEC4"
		},
		{
			"bufferView" : 0,
			"byteOffset" : 0,
			"componentType" : 5123,
			"count" : 1554,
			"max" : 
			[
				1133
			],
			"min" : 
			[
				0
			],
			"name" : "accessor_indices_0_m0-PolyPaper13_-199140",
			"type" : "SCALAR"
		},
		{
			"bufferView" : 0,
			"byteOffset" : 3108,
			"componentType" : 5123,
			"count" : 14832,
			"max" : 
			[
				9977
			],
			"min" : 
			[
				0
			],
			"name" : "accessor_indices_0_m1-PolyPaper23_-198922",
			"type" : "SCALAR"
		},
		{
			"bufferView" : 1,
			"byteOffset" : 13608,
			"componentType" : 5126,
			"count" : 1134,
			"max" : 
			[
				0.9956906,
				0.9993995,
				0.9926704
			],
			"min" : 
			[
				-0.9966375,
				-0.9999413,
				-0.980005
			],
			"name" : "accessor_normal_m0-PolyPaper13_-199140",
			"type" : "VEC3"
		},
		{
			"bufferView" : 1,
			"byteOffset" : 146952,
			"componentType" : 5126,
			"count" : 9978,
			"max" : 
			[
				0.9997907,
				0.9996955,
				0.9996697
			],
			"min" : 
			[
				-0.9992245,
				-0.9991828,
				-0.999871
			],
			"name" : "accessor_normal_m1-PolyPaper23_-198922",
			"type" : "VEC3"
		},
		{
			"bufferView" : 1,
			"byteOffset" : 0,
			"componentType" : 5126,
			"count" : 1134,
			"max" : 
			[
				-0.7329099,
				1.812871,
				0.1627045
			],
			"min" : 
			[
				-0.8592592999999999,
				1.61911,
				-0.007769121
			],
			"name" : "accessor_position_m0-PolyPaper13_-199140",
			"type" : "VEC3"
		},
		{
			"bufferView" : 1,
			"byteOffset" : 27216,
			"componentType" : 5126,
			"count" : 9978,
			"max" : 
			[
				-0.7065971,
				1.815235,
				0.163801
			],
			"min" : 
			[
				-0.8714796,
				1.63207,
				-0.005927095
			],
			"name" : "accessor_position_m1-PolyPaper23_-198922",
			"type" : "VEC3"
		}
	],
	"asset" : 
	{
		"copyright" : "Unknown",
		"generator" : "glTF 1-to-2 Upgrader for Google Blocks",
		"version" : "2.0"
	},
	"bufferViews" : 
	[
		{
			"buffer" : 0,
			"byteLength" : 32772,
			"byteOffset" : 0,
			"name" : "ushortBufferView",
			"target" : 34963
		},
		{
			"buffer" : 0,
			"byteLength" : 266688,
			"byteOffset" : 32772,
			"byteStride" : 12,
			"name" : "vec3BufferView",
			"target" : 34962
		},
		{
			"buffer" : 0,
			"byteLength" : 177792,
			"byteOffset" : 299460,
			"byteStride" : 16,
			"name" : "vec4BufferView",
			"target" : 34962
		}
	],
	"buffers" : 
	[
		{
			"byteLength" : 477252,
			"name" : "model",
			"uri" : "model.bin"
		}
	],
	"materials" : 
	[
		{
			"alphaMode" : "OPAQUE",
			"doubleSided" : false,
			"name" : "BlocksPaper",
			"pbrMetallicRoughness" : 
			{
				"baseColorFactor" : 
				[
					1,
					1,
					1,
					1
				],
				"metallicFactor" : 0,
				"roughnessFactor" : 0.6
			}
		},
		{
			"alphaMode" : "BLEND",
			"doubleSided" : false,
			"name" : "BlocksGlass",
			"pbrMetallicRoughness" : 
			{
				"baseColorFactor" : 
				[
					0.2,
					0.2,
					1,
					0.3
				],
				"metallicFactor" : 1,
				"roughnessFactor" : 0.4
			}
		},
		{
			"alphaMode" : "OPAQUE",
			"doubleSided" : true,
			"name" : "BlocksGem",
			"pbrMetallicRoughness" : 
			{
				"baseColorFactor" : 
				[
					1,
					0.4,
					1,
					1
				],
				"metallicFactor" : 0,
				"roughnessFactor" : 0.1
			}
		}
	],
	"meshes" : 
	[
		{
			"name" : "mesh_m0-PolyPaper13_-199140",
			"primitives" : 
			[
				{
					"attributes" : 
					{
						"COLOR_0" : 0,
						"NORMAL" : 4,
						"POSITION" : 6
					},
					"indices" : 2,
					"material" : 0,
					"mode" : 4
				}
			]
		},
		{
			"name" : "mesh_m1-PolyPaper23_-198922",
			"primitives" : 
			[
				{
					"attributes" : 
					{
						"COLOR_0" : 1,
						"NORMAL" : 5,
						"POSITION" : 7
					},
					"indices" : 3,
					"material" : 0,
					"mode" : 4
				}
			]
		}
	],
	"nodes" : 
	[
		{
			"matrix" : 
			[
				1,
				0,
				0,
				0,
				0,
				1,
				0,
				0,
				0,
				0,
				1,
				0,
				0,
				0,
				0,
				1
			],
			"mesh" : 0,
			"name" : "node_MeshObject1269296000-PolyPaper13"
		},
		{
			"matrix" : 
			[
				1,
				0,
				0,
				0,
				0,
				1,
				0,
				0,
				0,
				0,
				1,
				0,
				0,
				0,
				0,
				1
			],
			"mesh" : 1,
			"name" : "node_MeshObject912047296-PolyPaper23"
		}
	],
	"scene" : 0,
	"scenes" : 
	[
		{
			"extras" : {},
			"name" : "defaultScene",
			"nodes" : 
			[
				0,
				1
			]
		}
	]
}