{
	"accessors" : 
	[
		{
			"bufferView" : 2,
			"byteOffset" : 0,
			"componentType" : 5126,
			"count" : 9948,
			"max" : 
			[
				1,
				1,
				1,
				1
			],
			"min" : 
			[
				0.05637409910559654,
				0.01606770046055317,
				0,
				1
			],
			"name" : "accessor_color_m0-PolyPaper20_-319612",
			"type" : "VEC4"
		},
		{
			"bufferView" : 2,
			"byteOffset" : 159168,
			"componentType" : 5126,
			"count" : 2314,
			"max" : 
			[
				1,
				1,
				1,
				1
			],
			"min" : 
			[
				0.05637409910559654,
				0.01606770046055317,
				0,
				1
			],
			"name" : "accessor_color_m1-PolyPaper19_-319624",
			"type" : "VEC4"
		},
		{
			"bufferView" : 2,
			"byteOffset" : 196192,
			"componentType" : 5126,
			"count" : 48,
			"max" : 
			[
				0.6800203323364258,
				0.6800203323364258,
				0.6800203323364258,
				0.2509804
			],
			"min" : 
			[
				0.6800203323364258,
				0.6800203323364258,
				0.6800203323364258,
				0.2509804
			],
			"name" : "accessor_color_m2-PolyGlass24_-319602",
			"type" : "VEC4"
		},
		{
			"bufferView" : 0,
			"byteOffset" : 0,
			"componentType" : 5123,
			"count" : 13968,
			"max" : 
			[
				9947
			],
			"min" : 
			[
				0
			],
			"name" : "accessor_indices_0_m0-PolyPaper20_-319612",
			"type" : "SCALAR"
		},
		{
			"bufferView" : 0,
			"byteOffset" : 27936,
			"componentType" : 5123,
			"count" : 3192,
			"max" : 
			[
				2313
			],
			"min" : 
			[
				0
			],
			"name" : "accessor_indices_0_m1-PolyPaper19_-319624",
			"type" : "SCALAR"
		},
		{
			"bufferView" : 0,
			"byteOffset" : 34320,
			"componentType" : 5123,
			"count" : 120,
			"max" : 
			[
				47
			],
			"min" : 
			[
				0
			],
			"name" : "accessor_indices_0_m2-PolyGlass24_-319602",
			"type" : "SCALAR"
		},
		{
			"bufferView" : 1,
			"byteOffset" : 119376,
			"componentType" : 5126,
			"count" : 9948,
			"max" : 
			[
				0.9999087,
				0.9999368,
				0.9999007
			],
			"min" : 
			[
				-0.9999087,
				-0.9999367,
				-0.9999007
			],
			"name" : "accessor_normal_m0-PolyPaper20_-319612",
			"type" : "VEC3"
		},
		{
			"bufferView" : 1,
			"byteOffset" : 266520,
			"componentType" : 5126,
			"count" : 2314,
			"max" : 
			[
				0.9982014,
				0.9999427,
				0.9986235
			],
			"min" : 
			[
				-0.9982014,
				-0.9993864,
				-0.9975874
			],
			"name" : "accessor_normal_m1-PolyPaper19_-319624",
			"type" : "VEC3"
		},
		{
			"bufferView" : 1,
			"byteOffset" : 294864,
			"componentType" : 5126,
			"count" : 48,
			"max" : 
			[
				0.3222358,
				0.5277243,
				0.8801521
			],
			"min" : 
			[
				-0.3222328,
				-0.5277231,
				-0.8801491
			],
			"name" : "accessor_normal_m2-PolyGlass24_-319602",
			"type" : "VEC3"
		},
		{
			"bufferView" : 1,
			"byteOffset" : 0,
			"componentType" : 5126,
			"count" : 9948,
			"max" : 
			[
				1.170377,
				2.307337,
				2.471149
			],
			"min" : 
			[
				-1.162061,
				-0.1895821,
				-0.5613647
			],
			"name" : "accessor_position_m0-PolyPaper20_-319612",
			"type" : "VEC3"
		},
		{
			"bufferView" : 1,
			"byteOffset" : 238752,
			"componentType" : 5126,
			"count" : 2314,
			"max" : 
			[
				1.110655,
				2.122138,
				1.845533
			],
			"min" : 
			[
				-0.6447516,
				0.4557784,
				-0.9765567000000001
			],
			"name" : "accessor_position_m1-PolyPaper19_-319624",
			"type" : "VEC3"
		},
		{
			"bufferView" : 1,
			"byteOffset" : 294288,
			"componentType" : 5126,
			"count" : 48,
			"max" : 
			[
				0.8141978,
				2.066323,
				0.3423277
			],
			"min" : 
			[
				0.4336833,
				1.907589,
				0.1772933
			],
			"name" : "accessor_position_m2-PolyGlass24_-319602",
			"type" : "VEC3"
		}
	],
	"asset" : 
	{
		"copyright" : "Unknown",
		"generator" : "glTF 1-to-2 Upgrader for Google Blocks",
		"version" : "2.0"
	},
	"bufferViews" : 
	[
		{
			"buffer" : 0,
			"byteLength" : 34560,
			"byteOffset" : 0,
			"name" : "ushortBufferView",
			"target" : 34963
		},
		{
			"buffer" : 0,
			"byteLength" : 295440,
			"byteOffset" : 34560,
			"byteStride" : 12,
			"name" : "vec3BufferView",
			"target" : 34962
		},
		{
			"buffer" : 0,
			"byteLength" : 196960,
			"byteOffset" : 330000,
			"byteStride" : 16,
			"name" : "vec4BufferView",
			"target" : 34962
		}
	],
	"buffers" : 
	[
		{
			"byteLength" : 526960,
			"name" : "model",
			"uri" : "model.bin"
		}
	],
	"materials" : 
	[
		{
			"alphaMode" : "OPAQUE",
			"doubleSided" : false,
			"name" : "BlocksPaper",
			"pbrMetallicRoughness" : 
			{
				"baseColorFactor" : 
				[
					1,
					1,
					1,
					1
				],
				"metallicFactor" : 0,
				"roughnessFactor" : 0.6
			}
		},
		{
			"alphaMode" : "BLEND",
			"doubleSided" : false,
			"name" : "BlocksGlass",
			"pbrMetallicRoughness" : 
			{
				"baseColorFactor" : 
				[
					0.2,
					0.2,
					1,
					0.3
				],
				"metallicFactor" : 1,
				"roughnessFactor" : 0.4
			}
		},
		{
			"alphaMode" : "OPAQUE",
			"doubleSided" : true,
			"name" : "BlocksGem",
			"pbrMetallicRoughness" : 
			{
				"baseColorFactor" : 
				[
					1,
					0.4,
					1,
					1
				],
				"metallicFactor" : 0,
				"roughnessFactor" : 0.1
			}
		}
	],
	"meshes" : 
	[
		{
			"name" : "mesh_m0-PolyPaper20_-319612",
			"primitives" : 
			[
				{
					"attributes" : 
					{
						"COLOR_0" : 0,
						"NORMAL" : 6,
						"POSITION" : 9
					},
					"indices" : 3,
					"material" : 0,
					"mode" : 4
				}
			]
		},
		{
			"name" : "mesh_m1-PolyPaper19_-319624",
			"primitives" : 
			[
				{
					"attributes" : 
					{
						"COLOR_0" : 1,
						"NORMAL" : 7,
						"POSITION" : 10
					},
					"indices" : 4,
					"material" : 0,
					"mode" : 4
				}
			]
		},
		{
			"name" : "mesh_m2-PolyGlass24_-319602",
			"primitives" : 
			[
				{
					"attributes" : 
					{
						"COLOR_0" : 2,
						"NORMAL" : 8,
						"POSITION" : 11
					},
					"indices" : 5,
					"material" : 1,
					"mode" : 4
				}
			]
		}
	],
	"nodes" : 
	[
		{
			"matrix" : 
			[
				1,
				0,
				0,
				0,
				0,
				1,
				0,
				0,
				0,
				0,
				1,
				0,
				0,
				0,
				0,
				1
			],
			"mesh" : 2,
			"name" : "node_MeshObject1062499776-PolyGlass24"
		},
		{
			"matrix" : 
			[
				1,
				0,
				0,
				0,
				0,
				1,
				0,
				0,
				0,
				0,
				1,
				0,
				0,
				0,
				0,
				1
			],
			"mesh" : 1,
			"name" : "node_MeshObject1581219840-PolyPaper19"
		},
		{
			"matrix" : 
			[
				1,
				0,
				0,
				0,
				0,
				1,
				0,
				0,
				0,
				0,
				1,
				0,
				0,
				0,
				0,
				1
			],
			"mesh" : 0,
			"name" : "node_MeshObject543779712-PolyPaper20"
		}
	],
	"scene" : 0,
	"scenes" : 
	[
		{
			"extras" : {},
			"name" : "defaultScene",
			"nodes" : 
			[
				2,
				1,
				0
			]
		}
	]
}