{
	"accessors" : 
	[
		{
			"bufferView" : 2,
			"byteOffset" : 0,
			"componentType" : 5126,
			"count" : 9940,
			"max" : 
			[
				1,
				1,
				1,
				1
			],
			"min" : 
			[
				0,
				0.0384727455675602,
				0,
				1
			],
			"name" : "accessor_color_m0-PolyPaper14_-109850",
			"type" : "VEC4"
		},
		{
			"bufferView" : 2,
			"byteOffset" : 159040,
			"componentType" : 5126,
			"count" : 704,
			"max" : 
			[
				0.6800203323364258,
				0.6800203323364258,
				0.6800203323364258,
				0.2509804
			],
			"min" : 
			[
				0.6800203323364258,
				0.6800203323364258,
				0.6800203323364258,
				0.2509804
			],
			"name" : "accessor_color_m1-PolyGlass24_-103070",
			"type" : "VEC4"
		},
		{
			"bufferView" : 2,
			"byteOffset" : 170304,
			"componentType" : 5126,
			"count" : 2738,
			"max" : 
			[
				1,
				1,
				1,
				1
			],
			"min" : 
			[
				5.692175545846112e-05,
				0.08919350802898407,
				0.01188133470714092,
				1
			],
			"name" : "accessor_color_m2-PolyPaper3_-110002",
			"type" : "VEC4"
		},
		{
			"bufferView" : 0,
			"byteOffset" : 0,
			"componentType" : 5123,
			"count" : 14376,
			"max" : 
			[
				9939
			],
			"min" : 
			[
				0
			],
			"name" : "accessor_indices_0_m0-PolyPaper14_-109850",
			"type" : "SCALAR"
		},
		{
			"bufferView" : 0,
			"byteOffset" : 28752,
			"componentType" : 5123,
			"count" : 1056,
			"max" : 
			[
				703
			],
			"min" : 
			[
				0
			],
			"name" : "accessor_indices_0_m1-PolyGlass24_-103070",
			"type" : "SCALAR"
		},
		{
			"bufferView" : 0,
			"byteOffset" : 30864,
			"componentType" : 5123,
			"count" : 4008,
			"max" : 
			[
				2737
			],
			"min" : 
			[
				0
			],
			"name" : "accessor_indices_0_m2-PolyPaper3_-110002",
			"type" : "SCALAR"
		},
		{
			"bufferView" : 1,
			"byteOffset" : 119280,
			"componentType" : 5126,
			"count" : 9940,
			"max" : 
			[
				0.9999716,
				0.9999765,
				0.9999533
			],
			"min" : 
			[
				-0.9999715,
				-0.999987,
				-0.9999533
			],
			"name" : "accessor_normal_m0-PolyPaper14_-109850",
			"type" : "VEC3"
		},
		{
			"bufferView" : 1,
			"byteOffset" : 247008,
			"componentType" : 5126,
			"count" : 704,
			"max" : 
			[
				0.962484,
				0.9747306,
				0.9513578
			],
			"min" : 
			[
				-0.9624954,
				-0.9988179,
				-0.9509754
			],
			"name" : "accessor_normal_m1-PolyGlass24_-103070",
			"type" : "VEC3"
		},
		{
			"bufferView" : 1,
			"byteOffset" : 288312,
			"componentType" : 5126,
			"count" : 2738,
			"max" : 
			[
				0.997982,
				0.9997234,
				0.9995932
			],
			"min" : 
			[
				-0.9979819,
				-0.9997131,
				-0.9984598
			],
			"name" : "accessor_normal_m2-PolyPaper3_-110002",
			"type" : "VEC3"
		},
		{
			"bufferView" : 1,
			"byteOffset" : 0,
			"componentType" : 5126,
			"count" : 9940,
			"max" : 
			[
				1.269583,
				2.356415,
				0.919497
			],
			"min" : 
			[
				-0.9184365,
				0.3280666,
				-1.26859
			],
			"name" : "accessor_position_m0-PolyPaper14_-109850",
			"type" : "VEC3"
		},
		{
			"bufferView" : 1,
			"byteOffset" : 238560,
			"componentType" : 5126,
			"count" : 704,
			"max" : 
			[
				0.3366775,
				1.817205,
				0.4942569
			],
			"min" : 
			[
				0.2211135,
				1.408003,
				0.3749206
			],
			"name" : "accessor_position_m1-PolyGlass24_-103070",
			"type" : "VEC3"
		},
		{
			"bufferView" : 1,
			"byteOffset" : 255456,
			"componentType" : 5126,
			"count" : 2738,
			"max" : 
			[
				1.00639,
				2.3345,
				0.7705693
			],
			"min" : 
			[
				-0.1028199,
				0.4307944,
				-0.4105625
			],
			"name" : "accessor_position_m2-PolyPaper3_-110002",
			"type" : "VEC3"
		}
	],
	"asset" : 
	{
		"copyright" : "Unknown",
		"generator" : "glTF 1-to-2 Upgrader for Google Blocks",
		"version" : "2.0"
	},
	"bufferViews" : 
	[
		{
			"buffer" : 0,
			"byteLength" : 38880,
			"byteOffset" : 0,
			"name" : "ushortBufferView",
			"target" : 34963
		},
		{
			"buffer" : 0,
			"byteLength" : 321168,
			"byteOffset" : 38880,
			"byteStride" : 12,
			"name" : "vec3BufferView",
			"target" : 34962
		},
		{
			"buffer" : 0,
			"byteLength" : 214112,
			"byteOffset" : 360048,
			"byteStride" : 16,
			"name" : "vec4BufferView",
			"target" : 34962
		}
	],
	"buffers" : 
	[
		{
			"byteLength" : 574160,
			"name" : "model",
			"uri" : "model.bin"
		}
	],
	"materials" : 
	[
		{
			"alphaMode" : "OPAQUE",
			"doubleSided" : false,
			"name" : "BlocksPaper",
			"pbrMetallicRoughness" : 
			{
				"baseColorFactor" : 
				[
					1,
					1,
					1,
					1
				],
				"metallicFactor" : 0,
				"roughnessFactor" : 0.6
			}
		},
		{
			"alphaMode" : "BLEND",
			"doubleSided" : false,
			"name" : "BlocksGlass",
			"pbrMetallicRoughness" : 
			{
				"baseColorFactor" : 
				[
					0.2,
					0.2,
					1,
					0.3
				],
				"metallicFactor" : 1,
				"roughnessFactor" : 0.4
			}
		},
		{
			"alphaMode" : "OPAQUE",
			"doubleSided" : true,
			"name" : "BlocksGem",
			"pbrMetallicRoughness" : 
			{
				"baseColorFactor" : 
				[
					1,
					0.4,
					1,
					1
				],
				"metallicFactor" : 0,
				"roughnessFactor" : 0.1
			}
		}
	],
	"meshes" : 
	[
		{
			"name" : "mesh_m0-PolyPaper14_-109850",
			"primitives" : 
			[
				{
					"attributes" : 
					{
						"COLOR_0" : 0,
						"NORMAL" : 6,
						"POSITION" : 9
					},
					"indices" : 3,
					"material" : 0,
					"mode" : 4
				}
			]
		},
		{
			"name" : "mesh_m1-PolyGlass24_-103070",
			"primitives" : 
			[
				{
					"attributes" : 
					{
						"COLOR_0" : 1,
						"NORMAL" : 7,
						"POSITION" : 10
					},
					"indices" : 4,
					"material" : 1,
					"mode" : 4
				}
			]
		},
		{
			"name" : "mesh_m2-PolyPaper3_-110002",
			"primitives" : 
			[
				{
					"attributes" : 
					{
						"COLOR_0" : 2,
						"NORMAL" : 8,
						"POSITION" : 11
					},
					"indices" : 5,
					"material" : 0,
					"mode" : 4
				}
			]
		}
	],
	"nodes" : 
	[
		{
			"matrix" : 
			[
				1,
				0,
				0,
				0,
				0,
				1,
				0,
				0,
				0,
				0,
				1,
				0,
				0,
				0,
				0,
				1
			],
			"mesh" : 0,
			"name" : "node_MeshObject-1105014336-PolyPaper14"
		},
		{
			"matrix" : 
			[
				1,
				0,
				0,
				0,
				0,
				1,
				0,
				0,
				0,
				0,
				1,
				0,
				0,
				0,
				0,
				1
			],
			"mesh" : 1,
			"name" : "node_MeshObject-574432320-PolyGlass24"
		},
		{
			"matrix" : 
			[
				1,
				0,
				0,
				0,
				0,
				1,
				0,
				0,
				0,
				0,
				1,
				0,
				0,
				0,
				0,
				1
			],
			"mesh" : 2,
			"name" : "node_MeshObject-586294272-PolyPaper3"
		}
	],
	"scene" : 0,
	"scenes" : 
	[
		{
			"extras" : {},
			"name" : "defaultScene",
			"nodes" : 
			[
				0,
				1,
				2
			]
		}
	]
}