{
	"accessors" : 
	[
		{
			"bufferView" : 2,
			"byteOffset" : 0,
			"componentType" : 5126,
			"count" : 19114,
			"max" : 
			[
				1,
				1,
				1,
				1
			],
			"min" : 
			[
				0.006584956776350737,
				0.006584956776350737,
				0.006584956776350737,
				1
			],
			"name" : "accessor_color_m0-PolyPaper21_-182316",
			"type" : "VEC4"
		},
		{
			"bufferView" : 2,
			"byteOffset" : 305824,
			"componentType" : 5126,
			"count" : 4047,
			"max" : 
			[
				0.1360985487699509,
				0.0384727455675602,
				0.4819522500038147,
				1
			],
			"min" : 
			[
				0.006584956776350737,
				0.006584956776350737,
				0.006584956776350737,
				1
			],
			"name" : "accessor_color_m2-PolyPaper2_-182328",
			"type" : "VEC4"
		},
		{
			"bufferView" : 0,
			"byteOffset" : 0,
			"componentType" : 5123,
			"count" : 28218,
			"max" : 
			[
				19113
			],
			"min" : 
			[
				0
			],
			"name" : "accessor_indices_0_m0-PolyPaper21_-182316",
			"type" : "SCALAR"
		},
		{
			"bufferView" : 0,
			"byteOffset" : 56436,
			"componentType" : 5123,
			"count" : 5685,
			"max" : 
			[
				4046
			],
			"min" : 
			[
				0
			],
			"name" : "accessor_indices_0_m2-PolyPaper2_-182328",
			"type" : "SCALAR"
		},
		{
			"bufferView" : 1,
			"byteOffset" : 229368,
			"componentType" : 5126,
			"count" : 19114,
			"max" : 
			[
				0.9999534,
				0.9998437999999999,
				0.9998886
			],
			"min" : 
			[
				-0.9997596,
				-0.9995713000000001,
				-0.9999658
			],
			"name" : "accessor_normal_m0-PolyPaper21_-182316",
			"type" : "VEC3"
		},
		{
			"bufferView" : 1,
			"byteOffset" : 507300,
			"componentType" : 5126,
			"count" : 4047,
			"max" : 
			[
				0.9927233,
				0.9980294,
				0.999133
			],
			"min" : 
			[
				-0.9801175,
				-0.997489,
				-0.9995522
			],
			"name" : "accessor_normal_m2-PolyPaper2_-182328",
			"type" : "VEC3"
		},
		{
			"bufferView" : 1,
			"byteOffset" : 0,
			"componentType" : 5126,
			"count" : 19114,
			"max" : 
			[
				1.684299,
				3.060884,
				0.5177414
			],
			"min" : 
			[
				-0.3500743,
				1.154851,
				-0.9458482
			],
			"name" : "accessor_position_m0-PolyPaper21_-182316",
			"type" : "VEC3"
		},
		{
			"bufferView" : 1,
			"byteOffset" : 458736,
			"componentType" : 5126,
			"count" : 4047,
			"max" : 
			[
				1.498784,
				2.875117,
				0.308274
			],
			"min" : 
			[
				-0.1026637,
				1.415996,
				-0.9012256
			],
			"name" : "accessor_position_m2-PolyPaper2_-182328",
			"type" : "VEC3"
		}
	],
	"asset" : 
	{
		"copyright" : "Unknown",
		"generator" : "glTF 1-to-2 Upgrader for Google Blocks",
		"version" : "2.0"
	},
	"bufferViews" : 
	[
		{
			"buffer" : 0,
			"byteLength" : 67806,
			"byteOffset" : 0,
			"name" : "ushortBufferView",
			"target" : 34963
		},
		{
			"buffer" : 0,
			"byteLength" : 555864,
			"byteOffset" : 67806,
			"byteStride" : 12,
			"name" : "vec3BufferView",
			"target" : 34962
		},
		{
			"buffer" : 0,
			"byteLength" : 370576,
			"byteOffset" : 623670,
			"byteStride" : 16,
			"name" : "vec4BufferView",
			"target" : 34962
		}
	],
	"buffers" : 
	[
		{
			"byteLength" : 994246,
			"name" : "model",
			"uri" : "model.bin"
		}
	],
	"materials" : 
	[
		{
			"alphaMode" : "OPAQUE",
			"doubleSided" : false,
			"name" : "BlocksPaper",
			"pbrMetallicRoughness" : 
			{
				"baseColorFactor" : 
				[
					1,
					1,
					1,
					1
				],
				"metallicFactor" : 0,
				"roughnessFactor" : 0.6
			}
		},
		{
			"alphaMode" : "BLEND",
			"doubleSided" : false,
			"name" : "BlocksGlass",
			"pbrMetallicRoughness" : 
			{
				"baseColorFactor" : 
				[
					0.2,
					0.2,
					1,
					0.3
				],
				"metallicFactor" : 1,
				"roughnessFactor" : 0.4
			}
		},
		{
			"alphaMode" : "OPAQUE",
			"doubleSided" : true,
			"name" : "BlocksGem",
			"pbrMetallicRoughness" : 
			{
				"baseColorFactor" : 
				[
					1,
					0.4,
					1,
					1
				],
				"metallicFactor" : 0,
				"roughnessFactor" : 0.1
			}
		}
	],
	"meshes" : 
	[
		{
			"name" : "mesh_m0-PolyPaper21_-182316",
			"primitives" : 
			[
				{
					"attributes" : 
					{
						"COLOR_0" : 0,
						"NORMAL" : 4,
						"POSITION" : 6
					},
					"indices" : 2,
					"material" : 0,
					"mode" : 4
				}
			]
		},
		{
			"name" : "mesh_m2-PolyPaper2_-182328",
			"primitives" : 
			[
				{
					"attributes" : 
					{
						"COLOR_0" : 1,
						"NORMAL" : 5,
						"POSITION" : 7
					},
					"indices" : 3,
					"material" : 0,
					"mode" : 4
				}
			]
		}
	],
	"nodes" : 
	[
		{
			"matrix" : 
			[
				1,
				0,
				0,
				0,
				0,
				1,
				0,
				0,
				0,
				0,
				1,
				0,
				0,
				0,
				0,
				1
			],
			"mesh" : 0,
			"name" : "node_MeshObject1660916736-PolyPaper21"
		},
		{
			"matrix" : 
			[
				1,
				0,
				0,
				0,
				0,
				1,
				0,
				0,
				0,
				0,
				1,
				0,
				0,
				0,
				0,
				1
			],
			"mesh" : 1,
			"name" : "node_MeshObject807172096-PolyPaper2"
		}
	],
	"scene" : 0,
	"scenes" : 
	[
		{
			"extras" : {},
			"name" : "defaultScene",
			"nodes" : 
			[
				0,
				1
			]
		}
	]
}