{
	"accessors" : 
	[
		{
			"bufferView" : 2,
			"byteOffset" : 0,
			"componentType" : 5126,
			"count" : 9988,
			"max" : 
			[
				1,
				1,
				1,
				1
			],
			"min" : 
			[
				0.006584956776350737,
				0.006584956776350737,
				0.006584956776350737,
				1
			],
			"name" : "accessor_color_m0-PolyPaper23_-254684",
			"type" : "VEC4"
		},
		{
			"bufferView" : 2,
			"byteOffset" : 159808,
			"componentType" : 5126,
			"count" : 9784,
			"max" : 
			[
				1,
				1,
				1,
				1
			],
			"min" : 
			[
				0.006584956776350737,
				0.006584956776350737,
				0.006584956776350737,
				1
			],
			"name" : "accessor_color_m1-PolyPaper21_-249278",
			"type" : "VEC4"
		},
		{
			"bufferView" : 2,
			"byteOffset" : 316352,
			"componentType" : 5126,
			"count" : 9336,
			"max" : 
			[
				1,
				1,
				1,
				1
			],
			"min" : 
			[
				0,
				0.006584956776350737,
				0.006584956776350737,
				1
			],
			"name" : "accessor_color_m2-PolyPaper18_-257102",
			"type" : "VEC4"
		},
		{
			"bufferView" : 2,
			"byteOffset" : 465728,
			"componentType" : 5126,
			"count" : 9974,
			"max" : 
			[
				1,
				1,
				1,
				1
			],
			"min" : 
			[
				0.006584956776350737,
				0.006584956776350737,
				0.006584956776350737,
				1
			],
			"name" : "accessor_color_m3-PolyPaper23_-254552",
			"type" : "VEC4"
		},
		{
			"bufferView" : 2,
			"byteOffset" : 625312,
			"componentType" : 5126,
			"count" : 5626,
			"max" : 
			[
				1,
				1,
				1,
				1
			],
			"min" : 
			[
				0.006584956776350737,
				0.006584956776350737,
				0.006584956776350737,
				1
			],
			"name" : "accessor_color_m4-PolyPaper23_-257710",
			"type" : "VEC4"
		},
		{
			"bufferView" : 0,
			"byteOffset" : 0,
			"componentType" : 5123,
			"count" : 11628,
			"max" : 
			[
				9987
			],
			"min" : 
			[
				0
			],
			"name" : "accessor_indices_0_m0-PolyPaper23_-254684",
			"type" : "SCALAR"
		},
		{
			"bufferView" : 0,
			"byteOffset" : 23256,
			"componentType" : 5123,
			"count" : 11616,
			"max" : 
			[
				9783
			],
			"min" : 
			[
				0
			],
			"name" : "accessor_indices_0_m1-PolyPaper21_-249278",
			"type" : "SCALAR"
		},
		{
			"bufferView" : 0,
			"byteOffset" : 46488,
			"componentType" : 5123,
			"count" : 10512,
			"max" : 
			[
				9335
			],
			"min" : 
			[
				0
			],
			"name" : "accessor_indices_0_m2-PolyPaper18_-257102",
			"type" : "SCALAR"
		},
		{
			"bufferView" : 0,
			"byteOffset" : 67512,
			"componentType" : 5123,
			"count" : 11508,
			"max" : 
			[
				9973
			],
			"min" : 
			[
				0
			],
			"name" : "accessor_indices_0_m3-PolyPaper23_-254552",
			"type" : "SCALAR"
		},
		{
			"bufferView" : 0,
			"byteOffset" : 90528,
			"componentType" : 5123,
			"count" : 7026,
			"max" : 
			[
				5625
			],
			"min" : 
			[
				0
			],
			"name" : "accessor_indices_0_m4-PolyPaper23_-257710",
			"type" : "SCALAR"
		},
		{
			"bufferView" : 1,
			"byteOffset" : 119856,
			"componentType" : 5126,
			"count" : 9988,
			"max" : 
			[
				0.9996226,
				0.9999648,
				0.9998011999999999
			],
			"min" : 
			[
				-0.9996286,
				-0.9999648,
				-0.9996973
			],
			"name" : "accessor_normal_m0-PolyPaper23_-254684",
			"type" : "VEC3"
		},
		{
			"bufferView" : 1,
			"byteOffset" : 357120,
			"componentType" : 5126,
			"count" : 9784,
			"max" : 
			[
				0.9988545,
				0.9999648,
				0.9988321999999999
			],
			"min" : 
			[
				-0.9998581,
				-0.9999648,
				-0.9988813
			],
			"name" : "accessor_normal_m1-PolyPaper21_-249278",
			"type" : "VEC3"
		},
		{
			"bufferView" : 1,
			"byteOffset" : 586560,
			"componentType" : 5126,
			"count" : 9336,
			"max" : 
			[
				0.9995594,
				0.9999647,
				0.9995404
			],
			"min" : 
			[
				-0.9997342,
				-0.9999647,
				-0.9995404
			],
			"name" : "accessor_normal_m2-PolyPaper18_-257102",
			"type" : "VEC3"
		},
		{
			"bufferView" : 1,
			"byteOffset" : 818280,
			"componentType" : 5126,
			"count" : 9974,
			"max" : 
			[
				0.997618,
				0.9986703,
				0.9996545
			],
			"min" : 
			[
				-0.9982138,
				-0.9998543,
				-0.9995514
			],
			"name" : "accessor_normal_m3-PolyPaper23_-254552",
			"type" : "VEC3"
		},
		{
			"bufferView" : 1,
			"byteOffset" : 1005480,
			"componentType" : 5126,
			"count" : 5626,
			"max" : 
			[
				1,
				1,
				1
			],
			"min" : 
			[
				-1,
				-1,
				-1
			],
			"name" : "accessor_normal_m4-PolyPaper23_-257710",
			"type" : "VEC3"
		},
		{
			"bufferView" : 1,
			"byteOffset" : 0,
			"componentType" : 5126,
			"count" : 9988,
			"max" : 
			[
				0.3035538,
				-1.496049,
				-1.378145
			],
			"min" : 
			[
				-0.2485474,
				-2.855616,
				-2.114888
			],
			"name" : "accessor_position_m0-PolyPaper23_-254684",
			"type" : "VEC3"
		},
		{
			"bufferView" : 1,
			"byteOffset" : 239712,
			"componentType" : 5126,
			"count" : 9784,
			"max" : 
			[
				0.3354439,
				-1.551601,
				-1.373811
			],
			"min" : 
			[
				-0.2924752,
				-2.8501,
				-2.114928
			],
			"name" : "accessor_position_m1-PolyPaper21_-249278",
			"type" : "VEC3"
		},
		{
			"bufferView" : 1,
			"byteOffset" : 474528,
			"componentType" : 5126,
			"count" : 9336,
			"max" : 
			[
				0.3055307,
				-1.529876,
				-1.409168
			],
			"min" : 
			[
				-0.3490247,
				-2.814433,
				-2.101786
			],
			"name" : "accessor_position_m2-PolyPaper18_-257102",
			"type" : "VEC3"
		},
		{
			"bufferView" : 1,
			"byteOffset" : 698592,
			"componentType" : 5126,
			"count" : 9974,
			"max" : 
			[
				0.3719748,
				-1.507507,
				-1.396002
			],
			"min" : 
			[
				-0.3092197,
				-2.515344,
				-2.10109
			],
			"name" : "accessor_position_m3-PolyPaper23_-254552",
			"type" : "VEC3"
		},
		{
			"bufferView" : 1,
			"byteOffset" : 937968,
			"componentType" : 5126,
			"count" : 5626,
			"max" : 
			[
				0.2905234,
				-1.586062,
				-1.356279
			],
			"min" : 
			[
				-0.3357516,
				-2.843613,
				-2.082622
			],
			"name" : "accessor_position_m4-PolyPaper23_-257710",
			"type" : "VEC3"
		}
	],
	"asset" : 
	{
		"copyright" : "Unknown",
		"generator" : "glTF 1-to-2 Upgrader for Google Blocks",
		"version" : "2.0"
	},
	"bufferViews" : 
	[
		{
			"buffer" : 0,
			"byteLength" : 104580,
			"byteOffset" : 0,
			"name" : "ushortBufferView",
			"target" : 34963
		},
		{
			"buffer" : 0,
			"byteLength" : 1072992,
			"byteOffset" : 104580,
			"byteStride" : 12,
			"name" : "vec3BufferView",
			"target" : 34962
		},
		{
			"buffer" : 0,
			"byteLength" : 715328,
			"byteOffset" : 1177572,
			"byteStride" : 16,
			"name" : "vec4BufferView",
			"target" : 34962
		}
	],
	"buffers" : 
	[
		{
			"byteLength" : 1892900,
			"name" : "model",
			"uri" : "model.bin"
		}
	],
	"materials" : 
	[
		{
			"alphaMode" : "OPAQUE",
			"doubleSided" : false,
			"name" : "BlocksPaper",
			"pbrMetallicRoughness" : 
			{
				"baseColorFactor" : 
				[
					1,
					1,
					1,
					1
				],
				"metallicFactor" : 0,
				"roughnessFactor" : 0.6
			}
		},
		{
			"alphaMode" : "BLEND",
			"doubleSided" : false,
			"name" : "BlocksGlass",
			"pbrMetallicRoughness" : 
			{
				"baseColorFactor" : 
				[
					0.2,
					0.2,
					1,
					0.3
				],
				"metallicFactor" : 1,
				"roughnessFactor" : 0.4
			}
		},
		{
			"alphaMode" : "OPAQUE",
			"doubleSided" : true,
			"name" : "BlocksGem",
			"pbrMetallicRoughness" : 
			{
				"baseColorFactor" : 
				[
					1,
					0.4,
					1,
					1
				],
				"metallicFactor" : 0,
				"roughnessFactor" : 0.1
			}
		}
	],
	"meshes" : 
	[
		{
			"name" : "mesh_m0-PolyPaper23_-254684",
			"primitives" : 
			[
				{
					"attributes" : 
					{
						"COLOR_0" : 0,
						"NORMAL" : 10,
						"POSITION" : 15
					},
					"indices" : 5,
					"material" : 0,
					"mode" : 4
				}
			]
		},
		{
			"name" : "mesh_m1-PolyPaper21_-249278",
			"primitives" : 
			[
				{
					"attributes" : 
					{
						"COLOR_0" : 1,
						"NORMAL" : 11,
						"POSITION" : 16
					},
					"indices" : 6,
					"material" : 0,
					"mode" : 4
				}
			]
		},
		{
			"name" : "mesh_m2-PolyPaper18_-257102",
			"primitives" : 
			[
				{
					"attributes" : 
					{
						"COLOR_0" : 2,
						"NORMAL" : 12,
						"POSITION" : 17
					},
					"indices" : 7,
					"material" : 0,
					"mode" : 4
				}
			]
		},
		{
			"name" : "mesh_m3-PolyPaper23_-254552",
			"primitives" : 
			[
				{
					"attributes" : 
					{
						"COLOR_0" : 3,
						"NORMAL" : 13,
						"POSITION" : 18
					},
					"indices" : 8,
					"material" : 0,
					"mode" : 4
				}
			]
		},
		{
			"name" : "mesh_m4-PolyPaper23_-257710",
			"primitives" : 
			[
				{
					"attributes" : 
					{
						"COLOR_0" : 4,
						"NORMAL" : 14,
						"POSITION" : 19
					},
					"indices" : 9,
					"material" : 0,
					"mode" : 4
				}
			]
		}
	],
	"nodes" : 
	[
		{
			"matrix" : 
			[
				1,
				0,
				0,
				0,
				0,
				1,
				0,
				0,
				0,
				0,
				1,
				0,
				0,
				0,
				0,
				1
			],
			"mesh" : 0,
			"name" : "node_MeshObject-1669561216-PolyPaper23"
		},
		{
			"matrix" : 
			[
				1,
				0,
				0,
				0,
				0,
				1,
				0,
				0,
				0,
				0,
				1,
				0,
				0,
				0,
				0,
				1
			],
			"mesh" : 3,
			"name" : "node_MeshObject-486914304-PolyPaper23"
		},
		{
			"matrix" : 
			[
				1,
				0,
				0,
				0,
				0,
				1,
				0,
				0,
				0,
				0,
				1,
				0,
				0,
				0,
				0,
				1
			],
			"mesh" : 2,
			"name" : "node_MeshObject1225498176-PolyPaper18"
		},
		{
			"matrix" : 
			[
				1,
				0,
				0,
				0,
				0,
				1,
				0,
				0,
				0,
				0,
				1,
				0,
				0,
				0,
				0,
				1
			],
			"mesh" : 1,
			"name" : "node_MeshObject1341438016-PolyPaper21"
		},
		{
			"matrix" : 
			[
				1,
				0,
				0,
				0,
				0,
				1,
				0,
				0,
				0,
				0,
				1,
				0,
				0,
				0,
				0,
				1
			],
			"mesh" : 4,
			"name" : "node_MeshObject1373909760-PolyPaper23"
		}
	],
	"scene" : 0,
	"scenes" : 
	[
		{
			"extras" : {},
			"name" : "defaultScene",
			"nodes" : 
			[
				0,
				3,
				2,
				1,
				4
			]
		}
	]
}